<mxfile host="app.diagrams.net" modified="2024-06-03T08:45:05.189Z" agent="Mozilla/5.0 (Windows NT 10.0; Win64; x64) AppleWebKit/537.36 (KHTML, like Gecko) Chrome/125.0.0.0 Safari/537.36" etag="W_-MM2xouaJrw9UW-X3F" version="24.4.13" type="device">
  <diagram name="Page-1" id="5HU6y0waAm1WiHrvEC4F">
    <mxGraphModel dx="1793" dy="2102" grid="1" gridSize="10" guides="1" tooltips="1" connect="1" arrows="1" fold="1" page="1" pageScale="1" pageWidth="827" pageHeight="1169" math="0" shadow="0">
      <root>
        <mxCell id="0" />
        <mxCell id="1" parent="0" />
        <mxCell id="pLM_wdtdQlyNHDUvc0KU-1" value="" style="ellipse;html=1;shape=startState;fillColor=#000000;strokeColor=#ff0000;" parent="1" vertex="1">
          <mxGeometry x="150" y="65" width="30" height="30" as="geometry" />
        </mxCell>
        <mxCell id="pLM_wdtdQlyNHDUvc0KU-2" value="" style="edgeStyle=orthogonalEdgeStyle;html=1;verticalAlign=bottom;endArrow=open;endSize=8;strokeColor=#ff0000;rounded=0;" parent="1" source="pLM_wdtdQlyNHDUvc0KU-1" edge="1">
          <mxGeometry relative="1" as="geometry">
            <mxPoint x="250" y="80" as="targetPoint" />
            <Array as="points">
              <mxPoint x="220" y="80" />
              <mxPoint x="220" y="80" />
            </Array>
          </mxGeometry>
        </mxCell>
        <mxCell id="pLM_wdtdQlyNHDUvc0KU-3" value="" style="ellipse;html=1;shape=endState;fillColor=#000000;strokeColor=#ff0000;" parent="1" vertex="1">
          <mxGeometry x="516.5" y="-110" width="30" height="30" as="geometry" />
        </mxCell>
        <object label="Actor" id="pLM_wdtdQlyNHDUvc0KU-4">
          <mxCell style="shape=umlActor;verticalLabelPosition=bottom;verticalAlign=top;html=1;fontFamily=Tahoma;fontStyle=1;fontColor=#FFFFFF;" parent="1" vertex="1">
            <mxGeometry x="40" y="50" width="30" height="60" as="geometry" />
          </mxCell>
        </object>
        <mxCell id="pLM_wdtdQlyNHDUvc0KU-9" value="Otvaranje Foruma" style="rounded=1;whiteSpace=wrap;html=1;arcSize=40;fontColor=#000000;fillColor=#ffffc0;strokeColor=#ff0000;" parent="1" vertex="1">
          <mxGeometry x="230" y="50" width="160" height="60" as="geometry" />
        </mxCell>
        <mxCell id="pLM_wdtdQlyNHDUvc0KU-10" value="" style="edgeStyle=orthogonalEdgeStyle;html=1;verticalAlign=bottom;endArrow=open;endSize=8;strokeColor=#ff0000;rounded=0;entryX=0;entryY=0.5;entryDx=0;entryDy=0;" parent="1" source="pLM_wdtdQlyNHDUvc0KU-9" edge="1" target="pLM_wdtdQlyNHDUvc0KU-11">
          <mxGeometry relative="1" as="geometry">
            <mxPoint x="440" y="80" as="targetPoint" />
          </mxGeometry>
        </mxCell>
        <mxCell id="pLM_wdtdQlyNHDUvc0KU-36" style="edgeStyle=orthogonalEdgeStyle;rounded=0;orthogonalLoop=1;jettySize=auto;html=1;exitX=0.5;exitY=0;exitDx=0;exitDy=0;" parent="1" source="pLM_wdtdQlyNHDUvc0KU-11" edge="1">
          <mxGeometry relative="1" as="geometry">
            <mxPoint x="130" y="240" as="targetPoint" />
          </mxGeometry>
        </mxCell>
        <mxCell id="pLM_wdtdQlyNHDUvc0KU-80" style="edgeStyle=orthogonalEdgeStyle;rounded=0;orthogonalLoop=1;jettySize=auto;html=1;exitX=0.75;exitY=0;exitDx=0;exitDy=0;" parent="1" source="pLM_wdtdQlyNHDUvc0KU-11" target="pLM_wdtdQlyNHDUvc0KU-81" edge="1">
          <mxGeometry relative="1" as="geometry">
            <mxPoint x="495" y="150" as="targetPoint" />
          </mxGeometry>
        </mxCell>
        <mxCell id="_F3MVsFc_bE5Mz2v5dQR-54" style="edgeStyle=orthogonalEdgeStyle;rounded=0;orthogonalLoop=1;jettySize=auto;html=1;exitX=1;exitY=0.5;exitDx=0;exitDy=0;" edge="1" parent="1" source="pLM_wdtdQlyNHDUvc0KU-11">
          <mxGeometry relative="1" as="geometry">
            <mxPoint x="610" y="360" as="targetPoint" />
          </mxGeometry>
        </mxCell>
        <mxCell id="pLM_wdtdQlyNHDUvc0KU-11" value="Novi otvoren Forum" style="html=1;whiteSpace=wrap;" parent="1" vertex="1">
          <mxGeometry x="480" y="290" width="110" height="50" as="geometry" />
        </mxCell>
        <mxCell id="pLM_wdtdQlyNHDUvc0KU-14" value="Ostavljanje komentara" style="rounded=1;whiteSpace=wrap;html=1;arcSize=40;fontColor=#000000;fillColor=#ffffc0;strokeColor=#ff0000;" parent="1" vertex="1">
          <mxGeometry x="625" y="390" width="150" height="40" as="geometry" />
        </mxCell>
        <mxCell id="pLM_wdtdQlyNHDUvc0KU-15" value="" style="edgeStyle=orthogonalEdgeStyle;html=1;verticalAlign=bottom;endArrow=open;endSize=8;strokeColor=#ff0000;rounded=0;entryX=0;entryY=0.5;entryDx=0;entryDy=0;" parent="1" source="pLM_wdtdQlyNHDUvc0KU-14" edge="1" target="pLM_wdtdQlyNHDUvc0KU-17">
          <mxGeometry relative="1" as="geometry">
            <mxPoint x="685" y="150" as="targetPoint" />
          </mxGeometry>
        </mxCell>
        <mxCell id="pLM_wdtdQlyNHDUvc0KU-17" value="Bio na lokaciji" style="rhombus;whiteSpace=wrap;html=1;fontColor=#000000;fillColor=#ffffc0;strokeColor=#ff0000;" parent="1" vertex="1">
          <mxGeometry x="827" y="380" width="103" height="60" as="geometry" />
        </mxCell>
        <mxCell id="pLM_wdtdQlyNHDUvc0KU-18" value="no" style="edgeStyle=orthogonalEdgeStyle;html=1;align=left;verticalAlign=bottom;endArrow=open;endSize=8;strokeColor=#ff0000;rounded=0;entryX=0.691;entryY=0.017;entryDx=0;entryDy=0;entryPerimeter=0;exitX=0;exitY=0;exitDx=0;exitDy=0;" parent="1" target="pLM_wdtdQlyNHDUvc0KU-21" edge="1" source="pLM_wdtdQlyNHDUvc0KU-17">
          <mxGeometry x="-1" relative="1" as="geometry">
            <mxPoint x="1425" y="-50" as="targetPoint" />
            <mxPoint x="1625" y="-40" as="sourcePoint" />
            <Array as="points">
              <mxPoint x="853" y="80" />
              <mxPoint x="1066" y="80" />
            </Array>
          </mxGeometry>
        </mxCell>
        <mxCell id="pLM_wdtdQlyNHDUvc0KU-19" value="yes" style="edgeStyle=orthogonalEdgeStyle;html=1;align=left;verticalAlign=top;endArrow=open;endSize=8;strokeColor=#ff0000;rounded=0;exitX=0.5;exitY=0;exitDx=0;exitDy=0;" parent="1" source="pLM_wdtdQlyNHDUvc0KU-17" edge="1">
          <mxGeometry x="-1" relative="1" as="geometry">
            <mxPoint x="1000" y="520" as="targetPoint" />
            <Array as="points">
              <mxPoint x="878" y="370" />
              <mxPoint x="950" y="370" />
              <mxPoint x="950" y="520" />
            </Array>
          </mxGeometry>
        </mxCell>
        <mxCell id="pLM_wdtdQlyNHDUvc0KU-22" style="edgeStyle=orthogonalEdgeStyle;rounded=0;orthogonalLoop=1;jettySize=auto;html=1;" parent="1" target="pLM_wdtdQlyNHDUvc0KU-23" edge="1">
          <mxGeometry relative="1" as="geometry">
            <mxPoint x="1445" y="55" as="targetPoint" />
            <mxPoint x="1170" y="211" as="sourcePoint" />
          </mxGeometry>
        </mxCell>
        <mxCell id="_F3MVsFc_bE5Mz2v5dQR-28" style="edgeStyle=orthogonalEdgeStyle;rounded=0;orthogonalLoop=1;jettySize=auto;html=1;exitX=0.5;exitY=1;exitDx=0;exitDy=0;entryX=0.5;entryY=0;entryDx=0;entryDy=0;" edge="1" parent="1" source="pLM_wdtdQlyNHDUvc0KU-21" target="_F3MVsFc_bE5Mz2v5dQR-27">
          <mxGeometry relative="1" as="geometry" />
        </mxCell>
        <mxCell id="pLM_wdtdQlyNHDUvc0KU-21" value="Neoznacen komentar" style="html=1;whiteSpace=wrap;" parent="1" vertex="1">
          <mxGeometry x="990" y="118.75" width="110" height="50" as="geometry" />
        </mxCell>
        <mxCell id="pLM_wdtdQlyNHDUvc0KU-24" style="edgeStyle=orthogonalEdgeStyle;rounded=0;orthogonalLoop=1;jettySize=auto;html=1;exitX=0;exitY=0.5;exitDx=0;exitDy=0;entryX=1;entryY=0.5;entryDx=0;entryDy=0;" parent="1" source="pLM_wdtdQlyNHDUvc0KU-23" edge="1" target="pLM_wdtdQlyNHDUvc0KU-26">
          <mxGeometry relative="1" as="geometry">
            <mxPoint x="1495" y="339" as="targetPoint" />
          </mxGeometry>
        </mxCell>
        <mxCell id="pLM_wdtdQlyNHDUvc0KU-27" style="edgeStyle=orthogonalEdgeStyle;rounded=0;orthogonalLoop=1;jettySize=auto;html=1;exitX=0.5;exitY=1;exitDx=0;exitDy=0;" parent="1" source="pLM_wdtdQlyNHDUvc0KU-23" edge="1">
          <mxGeometry relative="1" as="geometry">
            <mxPoint x="1535" y="425" as="targetPoint" />
            <mxPoint x="1615" y="385" as="sourcePoint" />
            <Array as="points">
              <mxPoint x="1615" y="425" />
            </Array>
          </mxGeometry>
        </mxCell>
        <mxCell id="pLM_wdtdQlyNHDUvc0KU-23" value="20i oznacen komentar na forumu" style="rhombus;whiteSpace=wrap;html=1;fontColor=#000000;fillColor=#ffffc0;strokeColor=#ff0000;" parent="1" vertex="1">
          <mxGeometry x="1565" y="305" width="100" height="67.5" as="geometry" />
        </mxCell>
        <mxCell id="pLM_wdtdQlyNHDUvc0KU-25" value="da" style="text;html=1;align=center;verticalAlign=middle;resizable=0;points=[];autosize=1;strokeColor=none;fillColor=none;" parent="1" vertex="1">
          <mxGeometry x="1545" y="305" width="40" height="30" as="geometry" />
        </mxCell>
        <mxCell id="pLM_wdtdQlyNHDUvc0KU-26" value="Veoma koristan forum" style="html=1;whiteSpace=wrap;" parent="1" vertex="1">
          <mxGeometry x="1425" y="313.75" width="110" height="50" as="geometry" />
        </mxCell>
        <mxCell id="pLM_wdtdQlyNHDUvc0KU-28" value="ne" style="text;html=1;align=center;verticalAlign=middle;resizable=0;points=[];autosize=1;strokeColor=none;fillColor=none;" parent="1" vertex="1">
          <mxGeometry x="1605" y="363.75" width="40" height="30" as="geometry" />
        </mxCell>
        <mxCell id="pLM_wdtdQlyNHDUvc0KU-29" value="Obican forum" style="html=1;whiteSpace=wrap;" parent="1" vertex="1">
          <mxGeometry x="1425" y="395" width="110" height="50" as="geometry" />
        </mxCell>
        <mxCell id="pLM_wdtdQlyNHDUvc0KU-30" value="Actor" style="shape=umlActor;verticalLabelPosition=bottom;verticalAlign=top;html=1;fontColor=#FFFFFF;" parent="1" vertex="1">
          <mxGeometry x="20" y="495" width="30" height="60" as="geometry" />
        </mxCell>
        <mxCell id="pLM_wdtdQlyNHDUvc0KU-45" style="edgeStyle=orthogonalEdgeStyle;rounded=0;orthogonalLoop=1;jettySize=auto;html=1;exitX=0.497;exitY=1.08;exitDx=0;exitDy=0;exitPerimeter=0;entryX=0.363;entryY=-0.087;entryDx=0;entryDy=0;entryPerimeter=0;" parent="1" source="_F3MVsFc_bE5Mz2v5dQR-5" edge="1" target="_F3MVsFc_bE5Mz2v5dQR-6">
          <mxGeometry relative="1" as="geometry">
            <mxPoint x="140" y="500" as="targetPoint" />
            <mxPoint x="140" y="410" as="sourcePoint" />
          </mxGeometry>
        </mxCell>
        <mxCell id="pLM_wdtdQlyNHDUvc0KU-46" style="edgeStyle=orthogonalEdgeStyle;rounded=0;orthogonalLoop=1;jettySize=auto;html=1;exitX=1;exitY=0.5;exitDx=0;exitDy=0;" parent="1" edge="1">
          <mxGeometry relative="1" as="geometry">
            <mxPoint x="290" y="525" as="targetPoint" />
            <mxPoint x="210" y="525" as="sourcePoint" />
          </mxGeometry>
        </mxCell>
        <mxCell id="pLM_wdtdQlyNHDUvc0KU-40" value="Vasnik Ima smestaj na lokaciji" style="rhombus;whiteSpace=wrap;html=1;fontColor=#000000;fillColor=#ffffc0;strokeColor=#ff0000;" parent="1" vertex="1">
          <mxGeometry x="80" y="240" width="100" height="70" as="geometry" />
        </mxCell>
        <mxCell id="pLM_wdtdQlyNHDUvc0KU-42" value="yes" style="edgeStyle=orthogonalEdgeStyle;html=1;align=left;verticalAlign=top;endArrow=open;endSize=8;strokeColor=#ff0000;rounded=0;" parent="1" source="pLM_wdtdQlyNHDUvc0KU-40" edge="1">
          <mxGeometry x="-1" relative="1" as="geometry">
            <mxPoint x="130" y="360" as="targetPoint" />
          </mxGeometry>
        </mxCell>
        <mxCell id="pLM_wdtdQlyNHDUvc0KU-47" value="Ostavljanje oznacenog komentara na forumu" style="rounded=1;whiteSpace=wrap;html=1;arcSize=40;fontColor=#000000;fillColor=#ffffc0;strokeColor=#ff0000;" parent="1" vertex="1">
          <mxGeometry x="550" y="495" width="140" height="60" as="geometry" />
        </mxCell>
        <mxCell id="pLM_wdtdQlyNHDUvc0KU-48" value="" style="html=1;verticalAlign=bottom;endArrow=open;strokeColor=#ff0000;rounded=0;edgeStyle=orthogonalEdgeStyle;" parent="1" source="pLM_wdtdQlyNHDUvc0KU-47" edge="1">
          <mxGeometry relative="1" as="geometry">
            <mxPoint x="1000" y="550" as="targetPoint" />
          </mxGeometry>
        </mxCell>
        <mxCell id="pLM_wdtdQlyNHDUvc0KU-49" value="" style="line;strokeWidth=1;fillColor=none;align=left;verticalAlign=middle;spacingTop=-1;spacingLeft=3;spacingRight=3;rotatable=0;labelPosition=right;points=[];portConstraint=eastwest;strokeColor=inherit;" parent="1" vertex="1">
          <mxGeometry x="10" y="475" width="1630" height="8" as="geometry" />
        </mxCell>
        <mxCell id="pLM_wdtdQlyNHDUvc0KU-52" value="GOST" style="text;html=1;align=center;verticalAlign=middle;whiteSpace=wrap;rounded=0;" parent="1" vertex="1">
          <mxGeometry x="25" y="105" width="60" height="30" as="geometry" />
        </mxCell>
        <mxCell id="pLM_wdtdQlyNHDUvc0KU-53" value="VLASNIK" style="text;html=1;align=center;verticalAlign=middle;whiteSpace=wrap;rounded=0;" parent="1" vertex="1">
          <mxGeometry x="5" y="555" width="60" height="30" as="geometry" />
        </mxCell>
        <mxCell id="pLM_wdtdQlyNHDUvc0KU-58" style="edgeStyle=orthogonalEdgeStyle;rounded=0;orthogonalLoop=1;jettySize=auto;html=1;exitX=1;exitY=0.5;exitDx=0;exitDy=0;" parent="1" source="pLM_wdtdQlyNHDUvc0KU-56" target="pLM_wdtdQlyNHDUvc0KU-59" edge="1">
          <mxGeometry relative="1" as="geometry">
            <mxPoint x="720" y="600" as="targetPoint" />
          </mxGeometry>
        </mxCell>
        <mxCell id="pLM_wdtdQlyNHDUvc0KU-56" value="Oznacen komentar" style="html=1;whiteSpace=wrap;" parent="1" vertex="1">
          <mxGeometry x="1140" y="460" width="110" height="50" as="geometry" />
        </mxCell>
        <mxCell id="pLM_wdtdQlyNHDUvc0KU-60" style="edgeStyle=orthogonalEdgeStyle;rounded=0;orthogonalLoop=1;jettySize=auto;html=1;exitX=0.5;exitY=1;exitDx=0;exitDy=0;" parent="1" source="pLM_wdtdQlyNHDUvc0KU-59" target="pLM_wdtdQlyNHDUvc0KU-61" edge="1">
          <mxGeometry relative="1" as="geometry">
            <mxPoint x="730" y="700" as="targetPoint" />
          </mxGeometry>
        </mxCell>
        <mxCell id="pLM_wdtdQlyNHDUvc0KU-59" value="10i oznaceni komentar" style="rhombus;whiteSpace=wrap;html=1;fontColor=#000000;fillColor=#ffffc0;strokeColor=#ff0000;" parent="1" vertex="1">
          <mxGeometry x="800" y="720.5" width="100" height="70.5" as="geometry" />
        </mxCell>
        <mxCell id="_F3MVsFc_bE5Mz2v5dQR-25" style="edgeStyle=orthogonalEdgeStyle;rounded=0;orthogonalLoop=1;jettySize=auto;html=1;exitX=0.5;exitY=1;exitDx=0;exitDy=0;" edge="1" parent="1" source="pLM_wdtdQlyNHDUvc0KU-61" target="_F3MVsFc_bE5Mz2v5dQR-24">
          <mxGeometry relative="1" as="geometry" />
        </mxCell>
        <mxCell id="pLM_wdtdQlyNHDUvc0KU-61" value="Veoma koristan forum" style="html=1;whiteSpace=wrap;" parent="1" vertex="1">
          <mxGeometry x="795" y="890" width="110" height="50" as="geometry" />
        </mxCell>
        <mxCell id="pLM_wdtdQlyNHDUvc0KU-68" value="" style="ellipse;html=1;shape=endState;fillColor=#000000;strokeColor=#ff0000;" parent="1" vertex="1">
          <mxGeometry x="736.5" y="850" width="30" height="30" as="geometry" />
        </mxCell>
        <mxCell id="pLM_wdtdQlyNHDUvc0KU-70" value="&amp;nbsp;prijavljivanje komentara" style="rounded=1;whiteSpace=wrap;html=1;arcSize=40;fontColor=#000000;fillColor=#ffffc0;strokeColor=#ff0000;" parent="1" vertex="1">
          <mxGeometry x="550" y="840" width="120" height="40" as="geometry" />
        </mxCell>
        <mxCell id="pLM_wdtdQlyNHDUvc0KU-71" value="" style="edgeStyle=orthogonalEdgeStyle;html=1;verticalAlign=bottom;endArrow=open;endSize=8;strokeColor=#ff0000;rounded=0;exitX=0.5;exitY=1;exitDx=0;exitDy=0;" parent="1" source="pLM_wdtdQlyNHDUvc0KU-70" edge="1">
          <mxGeometry relative="1" as="geometry">
            <mxPoint x="610" y="960" as="targetPoint" />
            <mxPoint x="590" y="945.4" as="sourcePoint" />
          </mxGeometry>
        </mxCell>
        <mxCell id="pLM_wdtdQlyNHDUvc0KU-75" value="Prijaviti komentar?" style="rhombus;whiteSpace=wrap;html=1;fontColor=#000000;fillColor=#ffffc0;strokeColor=#ff0000;" parent="1" vertex="1">
          <mxGeometry x="620" y="720.5" width="120" height="60" as="geometry" />
        </mxCell>
        <mxCell id="pLM_wdtdQlyNHDUvc0KU-76" value="no" style="edgeStyle=orthogonalEdgeStyle;html=1;align=left;verticalAlign=bottom;endArrow=open;endSize=8;strokeColor=#ff0000;rounded=0;exitX=1;exitY=0.5;exitDx=0;exitDy=0;entryX=0.5;entryY=0;entryDx=0;entryDy=0;" parent="1" source="pLM_wdtdQlyNHDUvc0KU-75" edge="1" target="pLM_wdtdQlyNHDUvc0KU-68">
          <mxGeometry x="-1" relative="1" as="geometry">
            <mxPoint x="710" y="880.5" as="targetPoint" />
          </mxGeometry>
        </mxCell>
        <mxCell id="pLM_wdtdQlyNHDUvc0KU-77" value="yes" style="edgeStyle=orthogonalEdgeStyle;html=1;align=left;verticalAlign=top;endArrow=open;endSize=8;strokeColor=#ff0000;rounded=0;entryX=0.5;entryY=0;entryDx=0;entryDy=0;exitX=0;exitY=0.5;exitDx=0;exitDy=0;" parent="1" source="pLM_wdtdQlyNHDUvc0KU-75" target="pLM_wdtdQlyNHDUvc0KU-70" edge="1">
          <mxGeometry x="-1" relative="1" as="geometry">
            <mxPoint x="690" y="830" as="targetPoint" />
            <Array as="points" />
          </mxGeometry>
        </mxCell>
        <mxCell id="pLM_wdtdQlyNHDUvc0KU-79" value="Komentar sa prijavom više" style="html=1;whiteSpace=wrap;" parent="1" vertex="1">
          <mxGeometry x="555" y="960" width="110" height="50" as="geometry" />
        </mxCell>
        <mxCell id="pLM_wdtdQlyNHDUvc0KU-82" style="edgeStyle=orthogonalEdgeStyle;rounded=0;orthogonalLoop=1;jettySize=auto;html=1;exitX=0;exitY=0.5;exitDx=0;exitDy=0;" parent="1" source="pLM_wdtdQlyNHDUvc0KU-81" target="pLM_wdtdQlyNHDUvc0KU-83" edge="1">
          <mxGeometry relative="1" as="geometry">
            <mxPoint x="555" y="430" as="targetPoint" />
          </mxGeometry>
        </mxCell>
        <mxCell id="pLM_wdtdQlyNHDUvc0KU-81" value="Osnivac si foruma?" style="rhombus;whiteSpace=wrap;html=1;fontColor=#000000;fillColor=#ffffc0;strokeColor=#ff0000;" parent="1" vertex="1">
          <mxGeometry x="660" y="190" width="95" height="60" as="geometry" />
        </mxCell>
        <mxCell id="pLM_wdtdQlyNHDUvc0KU-85" style="edgeStyle=orthogonalEdgeStyle;rounded=0;orthogonalLoop=1;jettySize=auto;html=1;exitX=0;exitY=0.5;exitDx=0;exitDy=0;" parent="1" source="pLM_wdtdQlyNHDUvc0KU-83" target="pLM_wdtdQlyNHDUvc0KU-86" edge="1">
          <mxGeometry relative="1" as="geometry">
            <mxPoint x="425" y="430" as="targetPoint" />
          </mxGeometry>
        </mxCell>
        <mxCell id="pLM_wdtdQlyNHDUvc0KU-83" value="Zatvoriti forum?" style="rounded=1;whiteSpace=wrap;html=1;arcSize=40;fontColor=#000000;fillColor=#ffffc0;strokeColor=#ff0000;" parent="1" vertex="1">
          <mxGeometry x="580" y="40" width="120" height="40" as="geometry" />
        </mxCell>
        <mxCell id="pLM_wdtdQlyNHDUvc0KU-84" value="da" style="text;html=1;align=center;verticalAlign=middle;resizable=0;points=[];autosize=1;strokeColor=none;fillColor=none;" parent="1" vertex="1">
          <mxGeometry x="635" y="190" width="40" height="30" as="geometry" />
        </mxCell>
        <mxCell id="_F3MVsFc_bE5Mz2v5dQR-45" style="edgeStyle=orthogonalEdgeStyle;rounded=0;orthogonalLoop=1;jettySize=auto;html=1;exitX=0.5;exitY=0;exitDx=0;exitDy=0;entryX=0.5;entryY=1;entryDx=0;entryDy=0;" edge="1" parent="1" source="pLM_wdtdQlyNHDUvc0KU-86" target="pLM_wdtdQlyNHDUvc0KU-3">
          <mxGeometry relative="1" as="geometry" />
        </mxCell>
        <mxCell id="pLM_wdtdQlyNHDUvc0KU-86" value="Zatvoren forum" style="html=1;whiteSpace=wrap;" parent="1" vertex="1">
          <mxGeometry x="494" y="-40" width="75" height="45" as="geometry" />
        </mxCell>
        <mxCell id="_F3MVsFc_bE5Mz2v5dQR-4" value="" style="shape=mxgraph.sysml.accEvent;flipH=1;whiteSpace=wrap;align=center;html=1;rotation=-180;" vertex="1" parent="1">
          <mxGeometry x="80" y="505" width="140" height="40" as="geometry" />
        </mxCell>
        <mxCell id="_F3MVsFc_bE5Mz2v5dQR-5" value="Slanje obavestenja" style="shape=mxgraph.sysml.sendSigAct;whiteSpace=wrap;align=center;html=1;" vertex="1" parent="1">
          <mxGeometry x="65" y="360" width="140" height="40" as="geometry" />
        </mxCell>
        <mxCell id="_F3MVsFc_bE5Mz2v5dQR-6" value="Prijem obavestenja" style="text;html=1;align=center;verticalAlign=middle;whiteSpace=wrap;rounded=0;" vertex="1" parent="1">
          <mxGeometry x="95" y="510" width="110" height="30" as="geometry" />
        </mxCell>
        <mxCell id="_F3MVsFc_bE5Mz2v5dQR-9" value="" style="ellipse;html=1;shape=endState;fillColor=#000000;strokeColor=#ff0000;" vertex="1" parent="1">
          <mxGeometry x="1360" y="325" width="30" height="30" as="geometry" />
        </mxCell>
        <mxCell id="_F3MVsFc_bE5Mz2v5dQR-10" value="" style="ellipse;html=1;shape=endState;fillColor=#000000;strokeColor=#ff0000;" vertex="1" parent="1">
          <mxGeometry x="1360" y="403.75" width="30" height="30" as="geometry" />
        </mxCell>
        <mxCell id="_F3MVsFc_bE5Mz2v5dQR-15" style="edgeStyle=orthogonalEdgeStyle;rounded=0;orthogonalLoop=1;jettySize=auto;html=1;exitX=0;exitY=0.5;exitDx=0;exitDy=0;entryX=0.833;entryY=0.461;entryDx=0;entryDy=0;entryPerimeter=0;" edge="1" parent="1" source="pLM_wdtdQlyNHDUvc0KU-26" target="_F3MVsFc_bE5Mz2v5dQR-9">
          <mxGeometry relative="1" as="geometry" />
        </mxCell>
        <mxCell id="_F3MVsFc_bE5Mz2v5dQR-17" style="edgeStyle=orthogonalEdgeStyle;rounded=0;orthogonalLoop=1;jettySize=auto;html=1;exitX=0;exitY=0.5;exitDx=0;exitDy=0;entryX=0.891;entryY=0.531;entryDx=0;entryDy=0;entryPerimeter=0;" edge="1" parent="1" source="pLM_wdtdQlyNHDUvc0KU-29" target="_F3MVsFc_bE5Mz2v5dQR-10">
          <mxGeometry relative="1" as="geometry" />
        </mxCell>
        <mxCell id="_F3MVsFc_bE5Mz2v5dQR-51" style="edgeStyle=orthogonalEdgeStyle;rounded=0;orthogonalLoop=1;jettySize=auto;html=1;exitX=1;exitY=0.5;exitDx=0;exitDy=0;entryX=0.5;entryY=1;entryDx=0;entryDy=0;" edge="1" parent="1" source="_F3MVsFc_bE5Mz2v5dQR-19" target="pLM_wdtdQlyNHDUvc0KU-11">
          <mxGeometry relative="1" as="geometry" />
        </mxCell>
        <mxCell id="_F3MVsFc_bE5Mz2v5dQR-19" value="Ulazak na forum" style="rounded=1;whiteSpace=wrap;html=1;arcSize=40;fontColor=#000000;fillColor=#ffffc0;strokeColor=#ff0000;" vertex="1" parent="1">
          <mxGeometry x="289" y="495" width="140" height="60" as="geometry" />
        </mxCell>
        <mxCell id="_F3MVsFc_bE5Mz2v5dQR-31" style="edgeStyle=orthogonalEdgeStyle;rounded=0;orthogonalLoop=1;jettySize=auto;html=1;exitX=0;exitY=0.75;exitDx=0;exitDy=0;entryX=0;entryY=0.5;entryDx=0;entryDy=0;" edge="1" parent="1" source="pLM_wdtdQlyNHDUvc0KU-11" target="_F3MVsFc_bE5Mz2v5dQR-30">
          <mxGeometry relative="1" as="geometry">
            <mxPoint x="414" y="635" as="sourcePoint" />
          </mxGeometry>
        </mxCell>
        <mxCell id="_F3MVsFc_bE5Mz2v5dQR-24" value="" style="ellipse;html=1;shape=endState;fillColor=#000000;strokeColor=#ff0000;" vertex="1" parent="1">
          <mxGeometry x="835" y="1000" width="30" height="30" as="geometry" />
        </mxCell>
        <mxCell id="_F3MVsFc_bE5Mz2v5dQR-27" value="" style="ellipse;html=1;shape=endState;fillColor=#000000;strokeColor=#ff0000;" vertex="1" parent="1">
          <mxGeometry x="1030" y="250" width="30" height="30" as="geometry" />
        </mxCell>
        <mxCell id="_F3MVsFc_bE5Mz2v5dQR-33" style="edgeStyle=orthogonalEdgeStyle;rounded=0;orthogonalLoop=1;jettySize=auto;html=1;exitX=1;exitY=0.5;exitDx=0;exitDy=0;entryX=0.5;entryY=0;entryDx=0;entryDy=0;" edge="1" parent="1" source="_F3MVsFc_bE5Mz2v5dQR-30" target="pLM_wdtdQlyNHDUvc0KU-75">
          <mxGeometry relative="1" as="geometry" />
        </mxCell>
        <mxCell id="_F3MVsFc_bE5Mz2v5dQR-30" value="Pregled komentara" style="rounded=1;whiteSpace=wrap;html=1;arcSize=40;fontColor=#000000;fillColor=#ffffc0;strokeColor=#ff0000;" vertex="1" parent="1">
          <mxGeometry x="475" y="605" width="140" height="60" as="geometry" />
        </mxCell>
        <mxCell id="_F3MVsFc_bE5Mz2v5dQR-34" value="" style="ellipse;html=1;shape=endState;fillColor=#000000;strokeColor=#ff0000;" vertex="1" parent="1">
          <mxGeometry x="595" y="1040" width="30" height="30" as="geometry" />
        </mxCell>
        <mxCell id="_F3MVsFc_bE5Mz2v5dQR-35" style="edgeStyle=orthogonalEdgeStyle;rounded=0;orthogonalLoop=1;jettySize=auto;html=1;exitX=0.5;exitY=1;exitDx=0;exitDy=0;entryX=0.5;entryY=0;entryDx=0;entryDy=0;" edge="1" parent="1" source="pLM_wdtdQlyNHDUvc0KU-79" target="_F3MVsFc_bE5Mz2v5dQR-34">
          <mxGeometry relative="1" as="geometry">
            <mxPoint x="374" y="900" as="sourcePoint" />
            <mxPoint x="374" y="930" as="targetPoint" />
          </mxGeometry>
        </mxCell>
        <mxCell id="_F3MVsFc_bE5Mz2v5dQR-46" value="ne" style="text;html=1;align=center;verticalAlign=middle;resizable=0;points=[];autosize=1;strokeColor=none;fillColor=none;" vertex="1" parent="1">
          <mxGeometry x="730" y="180" width="40" height="30" as="geometry" />
        </mxCell>
        <mxCell id="_F3MVsFc_bE5Mz2v5dQR-47" style="edgeStyle=orthogonalEdgeStyle;rounded=0;orthogonalLoop=1;jettySize=auto;html=1;exitX=1;exitY=0.5;exitDx=0;exitDy=0;" edge="1" parent="1" source="pLM_wdtdQlyNHDUvc0KU-81">
          <mxGeometry relative="1" as="geometry">
            <mxPoint x="785" y="80" as="targetPoint" />
            <mxPoint x="670" y="230" as="sourcePoint" />
          </mxGeometry>
        </mxCell>
        <mxCell id="_F3MVsFc_bE5Mz2v5dQR-48" value="" style="ellipse;html=1;shape=endState;fillColor=#000000;strokeColor=#ff0000;" vertex="1" parent="1">
          <mxGeometry x="770" y="50" width="30" height="30" as="geometry" />
        </mxCell>
        <mxCell id="_F3MVsFc_bE5Mz2v5dQR-53" value="" style="endArrow=none;html=1;rounded=0;strokeWidth=8;" edge="1" parent="1">
          <mxGeometry width="50" height="50" relative="1" as="geometry">
            <mxPoint x="550" y="360" as="sourcePoint" />
            <mxPoint x="670" y="360" as="targetPoint" />
          </mxGeometry>
        </mxCell>
        <mxCell id="_F3MVsFc_bE5Mz2v5dQR-55" style="edgeStyle=orthogonalEdgeStyle;rounded=0;orthogonalLoop=1;jettySize=auto;html=1;" edge="1" parent="1">
          <mxGeometry relative="1" as="geometry">
            <mxPoint x="560" y="500" as="targetPoint" />
            <mxPoint x="560" y="360" as="sourcePoint" />
          </mxGeometry>
        </mxCell>
        <mxCell id="_F3MVsFc_bE5Mz2v5dQR-57" style="edgeStyle=orthogonalEdgeStyle;rounded=0;orthogonalLoop=1;jettySize=auto;html=1;entryX=0.173;entryY=0.05;entryDx=0;entryDy=0;entryPerimeter=0;" edge="1" parent="1" target="pLM_wdtdQlyNHDUvc0KU-14">
          <mxGeometry relative="1" as="geometry">
            <mxPoint x="570" y="510" as="targetPoint" />
            <mxPoint x="650" y="360" as="sourcePoint" />
          </mxGeometry>
        </mxCell>
        <mxCell id="_F3MVsFc_bE5Mz2v5dQR-58" value="" style="endArrow=none;html=1;rounded=0;strokeWidth=8;" edge="1" parent="1">
          <mxGeometry width="50" height="50" relative="1" as="geometry">
            <mxPoint x="1000" y="485" as="sourcePoint" />
            <mxPoint x="1000" y="584.9999999999999" as="targetPoint" />
          </mxGeometry>
        </mxCell>
        <mxCell id="_F3MVsFc_bE5Mz2v5dQR-60" value="" style="html=1;verticalAlign=bottom;endArrow=open;strokeColor=#ff0000;rounded=0;edgeStyle=orthogonalEdgeStyle;entryX=0;entryY=0.5;entryDx=0;entryDy=0;" edge="1" parent="1" target="pLM_wdtdQlyNHDUvc0KU-56">
          <mxGeometry relative="1" as="geometry">
            <mxPoint x="1010" y="560" as="targetPoint" />
            <mxPoint x="1000" y="530" as="sourcePoint" />
          </mxGeometry>
        </mxCell>
        <mxCell id="_F3MVsFc_bE5Mz2v5dQR-61" value="" style="endArrow=none;html=1;rounded=0;exitX=0.25;exitY=0;exitDx=0;exitDy=0;" edge="1" parent="1" source="pLM_wdtdQlyNHDUvc0KU-56">
          <mxGeometry width="50" height="50" relative="1" as="geometry">
            <mxPoint x="1250" y="520" as="sourcePoint" />
            <mxPoint x="1168" y="210" as="targetPoint" />
          </mxGeometry>
        </mxCell>
        <mxCell id="_F3MVsFc_bE5Mz2v5dQR-63" style="edgeStyle=orthogonalEdgeStyle;rounded=0;orthogonalLoop=1;jettySize=auto;html=1;exitX=1;exitY=0.5;exitDx=0;exitDy=0;" edge="1" parent="1" source="pLM_wdtdQlyNHDUvc0KU-59">
          <mxGeometry relative="1" as="geometry">
            <mxPoint x="970" y="860" as="targetPoint" />
            <mxPoint x="860" y="801" as="sourcePoint" />
          </mxGeometry>
        </mxCell>
        <mxCell id="_F3MVsFc_bE5Mz2v5dQR-67" style="edgeStyle=orthogonalEdgeStyle;rounded=0;orthogonalLoop=1;jettySize=auto;html=1;exitX=0.5;exitY=1;exitDx=0;exitDy=0;entryX=0.5;entryY=0;entryDx=0;entryDy=0;" edge="1" parent="1" source="_F3MVsFc_bE5Mz2v5dQR-64" target="_F3MVsFc_bE5Mz2v5dQR-65">
          <mxGeometry relative="1" as="geometry" />
        </mxCell>
        <mxCell id="_F3MVsFc_bE5Mz2v5dQR-64" value="Obican forum" style="html=1;whiteSpace=wrap;" vertex="1" parent="1">
          <mxGeometry x="920" y="860" width="110" height="50" as="geometry" />
        </mxCell>
        <mxCell id="_F3MVsFc_bE5Mz2v5dQR-65" value="" style="ellipse;html=1;shape=endState;fillColor=#000000;strokeColor=#ff0000;" vertex="1" parent="1">
          <mxGeometry x="960" y="950" width="30" height="30" as="geometry" />
        </mxCell>
        <mxCell id="_F3MVsFc_bE5Mz2v5dQR-71" value="" style="shape=image;html=1;verticalAlign=top;verticalLabelPosition=bottom;labelBackgroundColor=#ffffff;imageAspect=0;aspect=fixed;image=https://cdn1.iconfinder.com/data/icons/sea-24/32/Artboard_11sea-128.png;rotation=-210;" vertex="1" parent="1">
          <mxGeometry x="238.28" y="80" width="23" height="23" as="geometry" />
        </mxCell>
        <mxCell id="_F3MVsFc_bE5Mz2v5dQR-72" value="" style="rounded=0;whiteSpace=wrap;html=1;align=left;" vertex="1" parent="1">
          <mxGeometry x="5" y="-280" width="635" height="160" as="geometry" />
        </mxCell>
        <mxCell id="_F3MVsFc_bE5Mz2v5dQR-73" value="Text" style="text;html=1;align=center;verticalAlign=middle;whiteSpace=wrap;rounded=0;" vertex="1" parent="1">
          <mxGeometry x="500" y="-70" width="60" height="30" as="geometry" />
        </mxCell>
        <mxCell id="_F3MVsFc_bE5Mz2v5dQR-75" value="Otvaranje foruma" style="text;html=1;align=center;verticalAlign=middle;whiteSpace=wrap;rounded=0;" vertex="1" parent="1">
          <mxGeometry x="5" y="-280" width="105" height="30" as="geometry" />
        </mxCell>
        <mxCell id="_F3MVsFc_bE5Mz2v5dQR-82" style="edgeStyle=orthogonalEdgeStyle;rounded=0;orthogonalLoop=1;jettySize=auto;html=1;exitX=1;exitY=0.5;exitDx=0;exitDy=0;entryX=0;entryY=0.5;entryDx=0;entryDy=0;" edge="1" parent="1" source="_F3MVsFc_bE5Mz2v5dQR-76" target="_F3MVsFc_bE5Mz2v5dQR-78">
          <mxGeometry relative="1" as="geometry" />
        </mxCell>
        <mxCell id="_F3MVsFc_bE5Mz2v5dQR-76" value="Unos grada" style="rounded=1;whiteSpace=wrap;html=1;arcSize=40;fontColor=#000000;fillColor=#ffffc0;strokeColor=#ff0000;" vertex="1" parent="1">
          <mxGeometry x="230" y="-225" width="160" height="60" as="geometry" />
        </mxCell>
        <mxCell id="_F3MVsFc_bE5Mz2v5dQR-81" style="edgeStyle=orthogonalEdgeStyle;rounded=0;orthogonalLoop=1;jettySize=auto;html=1;exitX=1;exitY=0.5;exitDx=0;exitDy=0;entryX=0;entryY=0.5;entryDx=0;entryDy=0;" edge="1" parent="1" source="_F3MVsFc_bE5Mz2v5dQR-77" target="_F3MVsFc_bE5Mz2v5dQR-76">
          <mxGeometry relative="1" as="geometry" />
        </mxCell>
        <mxCell id="_F3MVsFc_bE5Mz2v5dQR-77" value="Unos Drzave" style="rounded=1;whiteSpace=wrap;html=1;arcSize=40;fontColor=#000000;fillColor=#ffffc0;strokeColor=#ff0000;" vertex="1" parent="1">
          <mxGeometry x="20" y="-225" width="160" height="60" as="geometry" />
        </mxCell>
        <mxCell id="_F3MVsFc_bE5Mz2v5dQR-78" value="Unos prvog komentara" style="rounded=1;whiteSpace=wrap;html=1;arcSize=40;fontColor=#000000;fillColor=#ffffc0;strokeColor=#ff0000;" vertex="1" parent="1">
          <mxGeometry x="450" y="-225" width="160" height="60" as="geometry" />
        </mxCell>
      </root>
    </mxGraphModel>
  </diagram>
</mxfile>
